# xmcd
#
# Track frame offsets:
#	150
#	16068
#	34026
#	51839
#	67144
#	84812
#	99406
#
# Disc length: 1557 seconds
#
# Revision: 1
# Processed by: cddbd v1.5.2PL0 Copyright (c) Steve Scherf et al.
# Submitted via: audiograbber 1.83.01
#
DISCID=4b061307
DTITLE=Whiskey Wolves of the West - Country Roots
DYEAR=2018
DGENRE=Country
TTITLE0=Sound of the South
TTITLE1=Lay That Needle Down
TTITLE2=Alexandria
TTITLE3=Rainy Day Lovers
TTITLE4=Country Roots
TTITLE5=The Song Ain't Gonna Write Itself
TTITLE6=The Ballad of Dallas Davidson
EXTD=
EXTT0=
EXTT1=
EXTT2=
EXTT3=
EXTT4=
EXTT5=
EXTT6=
PLAYORDER=
